<svg xmlns="http://www.w3.org/2000/svg" version="1.1" xmlns:xlink="http://www.w3.org/1999/xlink" width="1000" height="1000"><g clip-path="url(#SvgjsClipPath1064)"><rect width="1000" height="1000" fill="#ffffff"></rect><g transform="matrix(5,0,0,5,0,0)"><svg xmlns="http://www.w3.org/2000/svg" version="1.1" xmlns:xlink="http://www.w3.org/1999/xlink" width="200" height="200"><svg xmlns="http://www.w3.org/2000/svg" version="1.1" xmlns:xlink="http://www.w3.org/1999/xlink" viewBox="0 0 200 200"><rect width="200" height="200" fill="url('#gradient')"></rect><defs><linearGradient id="gradient" gradientTransform="rotate(45 0.5 0.5)"><stop offset="0%" stop-color="#472027"></stop><stop offset="100%" stop-color="#192025"></stop></linearGradient><clipPath id="SvgjsClipPath1064"><rect width="1000" height="1000" x="0" y="0" rx="500" ry="500"></rect></clipPath></defs><g><g fill="#d60000" transform="matrix(1.5240615181081527,0,0,1.5240615181081527,10.043831234360127,110.8328318462621)" stroke="#d60000" stroke-width="0"><path d="M9.98 0L9.15-2.66L4.45-2.66L3.63 0L-0.03 0L5.19-14.22L8.41-14.22L13.66 0L9.98 0ZM6.80-10.23L5.27-5.30L8.33-5.30L6.80-10.23ZM22.03-3.78L22.03-3.78Q22.03-4.53 21.50-4.95Q20.97-5.37 19.63-5.82Q18.29-6.27 17.44-6.69L17.44-6.69Q14.68-8.05 14.68-10.42L14.68-10.42Q14.68-11.60 15.37-12.50Q16.05-13.41 17.31-13.91Q18.57-14.41 20.15-14.41L20.15-14.41Q21.68-14.41 22.90-13.87Q24.11-13.32 24.79-12.31Q25.46-11.30 25.46-10L25.46-10L22.04-10Q22.04-10.87 21.51-11.35Q20.98-11.83 20.07-11.83L20.07-11.83Q19.15-11.83 18.62-11.42Q18.09-11.02 18.09-10.39L18.09-10.39Q18.09-9.84 18.67-9.40Q19.26-8.96 20.73-8.48Q22.21-8.01 23.15-7.46L23.15-7.46Q25.46-6.13 25.46-3.80L25.46-3.80Q25.46-1.93 24.05-0.87Q22.65 0.20 20.20 0.20L20.20 0.20Q18.47 0.20 17.07-0.42Q15.66-1.04 14.96-2.12Q14.25-3.20 14.25-4.61L14.25-4.61L17.69-4.61Q17.69-3.47 18.28-2.92Q18.87-2.38 20.20-2.38L20.20-2.38Q21.04-2.38 21.54-2.75Q22.03-3.12 22.03-3.78ZM30.64-14.22L30.64-2.64L36.61-2.64L36.61 0L27.22 0L27.22-14.22L30.64-14.22ZM41.71-14.22L41.71 0L38.29 0L38.29-14.22L41.71-14.22ZM49.71-4.82L47.52-4.82L47.52 0L44.09 0L44.09-14.22L49.77-14.22Q51.40-14.22 52.65-13.62Q53.91-13.02 54.59-11.91Q55.28-10.80 55.28-9.39L55.28-9.39Q55.28-7.31 53.79-6.07Q52.30-4.82 49.71-4.82L49.71-4.82ZM47.52-11.57L47.52-7.47L49.77-7.47Q50.76-7.47 51.28-7.97Q51.81-8.47 51.81-9.38L51.81-9.38Q51.81-10.37 51.27-10.97Q50.73-11.56 49.80-11.57L49.80-11.57L47.52-11.57ZM69.15-7.47L69.15-6.82Q69.15-4.74 68.38-3.13Q67.61-1.53 66.19-0.67Q64.77 0.20 62.95 0.20Q61.13 0.20 59.73-0.64Q58.32-1.47 57.53-3.03Q56.75-4.58 56.71-6.59L56.71-6.59L56.71-7.39Q56.71-9.48 57.48-11.08Q58.24-12.68 59.67-13.54Q61.10-14.41 62.93-14.41L62.93-14.41Q64.74-14.41 66.15-13.55Q67.57-12.70 68.35-11.11Q69.14-9.52 69.15-7.47L69.15-7.47ZM65.66-6.76L65.66-7.41Q65.66-9.53 64.96-10.63Q64.25-11.73 62.93-11.73L62.93-11.73Q60.35-11.73 60.21-7.86L60.21-7.86L60.20-6.82Q60.20-4.73 60.89-3.60Q61.58-2.48 62.95-2.48L62.95-2.48Q64.25-2.48 64.95-3.58Q65.65-4.69 65.66-6.76L65.66-6.76ZM74.35-14.22L74.35-2.64L80.31-2.64L80.31 0L70.92 0L70.92-14.22L74.35-14.22ZM85.41-14.22L85.41 0L81.99 0L81.99-14.22L85.41-14.22ZM98.67-14.22L98.67-11.57L94.40-11.57L94.40 0L90.98 0L90.98-11.57L86.79-11.57L86.79-14.22L98.67-14.22ZM103.77-14.22L103.77 0L100.35 0L100.35-14.22L103.77-14.22ZM114.01 0L110.99-5.29L109.58-3.75L109.58 0L106.15 0L106.15-14.22L109.58-14.22L109.58-7.95L110.77-9.76L113.84-14.22L118.08-14.22L113.27-7.93L118.08 0L114.01 0Z"></path></g></g></svg></svg></g></g></svg>